Coordinates
version=1
nRows=14
nColumns=42
inDegrees=yes

Units are S.I. units (second, meters, Newtons, ...)
If the header above contains a line with 'inDegrees', this indicates whether rotational values are in degrees (yes) or radians (no).

endheader
time	pelvis_tilt	pelvis_list	pelvis_rotation	pelvis_tx	pelvis_ty	pelvis_tz	hip_flexion_r	hip_adduction_r	hip_rotation_r	knee_angle_r	knee_adduction_r	knee_angle_r_beta	ankle_angle_r	subtalar_angle_r	mtp_angle_r	hip_flexion_l	hip_adduction_l	hip_rotation_l	knee_angle_l	knee_adduction_l	knee_angle_l_beta	ankle_angle_l	subtalar_angle_l	mtp_angle_l	lumbar_extension	lumbar_bending	lumbar_rotation	arm_flex_r	arm_add_r	arm_rot_r	elbow_flex_r	pro_sup_r	wrist_flex_r	wrist_dev_r	arm_flex_l	arm_add_l	arm_rot_l	elbow_flex_l	pro_sup_l	wrist_flex_l	wrist_dev_l
      0.50000000	      3.39691443	    -10.16125311	     -3.77105810	     -1.67241319	      0.83214817	      0.35262938	      6.43748891	      7.84580374	    -27.53576947	     21.38915974	     -2.89258498	      0.37331126	     16.19684576	     25.41660912	     -9.48346177	     -2.61939926	    -17.31974068	    -19.72954488	     43.42834179	     -8.84896636	      0.75796755	     19.77227850	     28.22936310	     -9.48346177	    -25.49625730	     11.12513219	      4.34789045	     -7.81896976	     -2.00922983	    -10.89191497	    105.54232050	     90.00000001	      0.00000000	      0.00000000	     -2.83534142	     -9.67058798	    -26.85679448	     45.41467969	     90.00000001	      0.00000000	      0.00000000
      0.51000000	      3.37083549	     -9.99090174	     -3.82990738	     -1.67022570	      0.83231832	      0.35389499	      6.21673829	      7.72199982	    -27.39215823	     21.29268058	     -2.72689937	      0.37162738	     16.42601412	     25.53211079	     -9.45363623	     -1.58265217	    -17.35857903	    -19.01629229	     45.31687648	     -9.04297749	      0.79092870	     18.26290847	     28.27952011	     -9.45363623	    -25.74725127	     10.97602231	      4.33320091	     -8.08600475	     -2.12088106	    -11.15538272	    105.52849801	     90.00000001	      0.00000000	      0.00000000	     -2.72725340	     -9.59214059	    -26.91837624	     45.72063311	     90.00000001	      0.00000000	      0.00000000
      0.52000000	      3.07009299	     -9.87996925	     -3.90064113	     -1.66825933	      0.83205966	      0.35523729	      6.42085187	      7.79767278	    -27.30784118	     21.30860974	     -2.89247450	      0.37190540	     16.64546901	     25.35111784	     -9.39409039	     -0.13836960	    -17.54331257	    -17.96205245	     47.39197455	     -8.94573829	      0.82714599	     16.85173040	     27.71002389	     -9.39409039	    -25.67439190	     10.89540717	      4.34799916	     -8.38901024	     -2.30674562	    -11.42854353	    105.28644082	     90.00000001	      0.00000000	      0.00000000	     -2.61427856	     -9.49638658	    -26.92826116	     46.02391385	     90.00000001	      0.00000000	      0.00000000
      0.53000000	      3.26655055	     -9.52922808	     -4.16428671	     -1.66610346	      0.83265564	      0.35650648	      6.05870431	      7.48887697	    -27.03425868	     21.37520200	     -2.90041020	      0.37306765	     16.64639661	     25.26190359	     -9.37615496	      0.43223862	    -17.31603848	    -17.70853525	     48.83988942	     -9.05748756	      0.85241688	     16.33699461	     27.59826966	     -9.37615496	    -26.20767505	     10.44838952	      4.47004277	     -8.62811816	     -2.50912382	    -11.55624573	    105.02800557	     90.00000001	      0.00000000	      0.00000000	     -2.44310865	     -9.44803557	    -26.88480735	     46.19456326	     90.00000001	      0.00000000	      0.00000000
      0.54000000	      2.51514332	     -9.69042805	     -3.95347673	     -1.66475872	      0.83157623	      0.35743545	      6.76347915	      7.84299984	    -27.08093564	     21.30657469	     -2.91038837	      0.37186988	     16.98548267	     25.11038293	     -9.28860904	      2.82889656	    -18.02938618	    -16.09922471	     51.40924995	     -8.55353031	      0.89726068	     14.69589812	     26.20730529	     -9.28860904	    -25.70049914	     10.83649326	      4.27759206	     -8.84155981	     -2.55859611	    -12.01266525	    104.91920830	     90.00000001	      0.00000000	      0.00000000	     -2.35558254	     -9.31400737	    -26.94559276	     46.59266819	     90.00000001	      0.00000000	      0.00000000
      0.55000000	      2.27605494	     -9.54825386	     -3.93357790	     -1.66305369	      0.83138773	      0.35823111	      6.86509282	      7.74811926	    -26.97592163	     21.27029397	     -2.81818108	      0.37123666	     17.15518800	     24.94310324	     -9.19046299	      4.28508923	    -18.19168694	    -15.33075492	     53.18976077	     -8.35055220	      0.92833645	     14.00426039	     25.03889109	     -9.19046299	    -25.74351959	     10.78803427	      4.19361782	     -9.01256915	     -2.69358227	    -12.32304682	    104.80647404	     90.00000001	      0.00000000	      0.00000000	     -2.21178143	     -9.20976119	    -26.96349397	     46.86448573	     90.00000001	      0.00000000	      0.00000000
      0.56000000	      2.29941065	     -9.34420472	     -3.96437220	     -1.66116583	      0.83159679	      0.35893254	      6.62783377	      7.51643060	    -26.81463710	     21.21643749	     -2.61705182	      0.37029669	     17.33191654	     24.87807209	     -9.15765019	      5.32018381	    -18.23792117	    -15.37592811	     54.52751453	     -8.61482761	      0.95168466	     13.48272696	     24.61323497	     -9.15765019	    -26.06861648	     10.62379348	      4.15941714	     -9.10468670	     -2.78912211	    -12.60074680	    104.72482906	     90.00000001	      0.00000000	      0.00000000	     -2.05122457	     -9.11540052	    -26.90677164	     47.15916902	     90.00000001	      0.00000000	      0.00000000
      0.57000000	      2.36502985	     -9.06767482	     -4.09954543	     -1.65936030	      0.83191860	      0.35976170	      6.41617000	      7.23874324	    -26.67910796	     21.25229053	     -2.59113163	      0.37092244	     17.36746928	     24.75440102	     -9.13515646	      6.21368312	    -18.25203727	    -15.53496522	     55.62321731	     -8.68979500	      0.97080828	     13.24029521	     24.23994348	     -9.13515646	    -26.44842701	     10.31269522	      4.22647232	     -9.12714975	     -2.92180584	    -12.70814200	    104.53411953	     90.00000001	      0.00000000	      0.00000000	     -1.85137452	     -9.05939604	    -26.82483163	     47.39943102	     90.00000001	      0.00000000	      0.00000000
      0.58000000	      1.86594144	     -9.11826213	     -4.08780947	     -1.65794053	      0.83124727	      0.36040231	      6.85321858	      7.40773658	    -26.69390276	     21.22568489	     -2.63950490	      0.37045809	     17.65614468	     24.92449635	     -9.08561889	      8.09086110	    -18.71690813	    -15.67967990	     57.00798553	     -9.03331564	      0.99497705	     13.07592718	     22.89959054	     -9.08561889	    -26.24291826	     10.48363585	      4.18893883	     -9.19186239	     -3.01879325	    -13.02045409	    104.50186641	     90.00000001	      0.00000000	      0.00000000	     -1.77175967	     -8.90983322	    -26.76400497	     47.83846414	     90.00000001	      0.00000000	      0.00000000
      0.59000000	      1.94069647	     -8.88538117	     -4.13489661	     -1.65626979	      0.83156153	      0.36091797	      6.61884708	      7.11901754	    -26.68941394	     21.22947660	     -2.53588184	      0.37052427	     17.68804905	     24.83226235	     -9.06920430	      9.01450051	    -18.86269258	    -16.07708294	     57.72906923	     -9.02299665	      1.00756233	     13.15103698	     22.49990116	     -9.06920430	    -26.64500431	     10.25915293	      4.17808305	     -9.09447188	     -3.09849161	    -13.08159636	    104.38933464	     90.00000001	      0.00000000	      0.00000000	     -1.54023336	     -8.86828272	    -26.68266808	     48.00116871	     90.00000001	      0.00000000	      0.00000000
      0.60000000	      1.28881280	     -8.94204555	     -4.11161999	     -1.65508247	      0.83061391	      0.36141062	      7.31751684	      7.23825113	    -26.86758117	     21.39522694	     -2.58808133	      0.37341715	     18.02140864	     25.18291530	     -8.97899419	     11.10374557	    -19.36317951	    -16.29918798	     58.77092202	     -9.25442609	      1.02574609	     13.72596405	     20.37660811	     -8.97899419	    -26.26973779	     10.46518267	      4.13697729	     -9.07501224	     -3.13309694	    -13.28047982	    104.37383443	     90.00000001	      0.00000000	      0.00000000	     -1.41716540	     -8.74583251	    -26.55834947	     48.30343473	     90.00000001	      0.00000000	      0.00000000
      0.61000000	      1.31362143	     -8.85526489	     -4.03407033	     -1.65335242	      0.83075959	      0.36157730	      7.07631488	      7.10118671	    -26.95744781	     21.29020232	     -2.47095087	      0.37158413	     18.09714569	     25.23255226	     -8.96283147	     12.19175085	    -19.64099960	    -17.13000766	     59.15097214	     -9.64723299	      1.03237922	     14.22617572	     19.80090674	     -8.96283147	    -26.58799433	     10.45368254	      4.03342181	     -8.99107538	     -3.21681921	    -13.46496372	    104.30566860	     90.00000001	      0.00000000	      0.00000000	     -1.22577660	     -8.66961875	    -26.49273099	     48.49139782	     90.00000001	      0.00000000	      0.00000000
      0.62000000	      1.10016591	     -8.80310871	     -4.10479183	     -1.65191746	      0.83058845	      0.36187324	      7.18547786	      7.05079897	    -26.98652678	     21.28752690	     -2.43633473	      0.37153743	     18.16496469	     25.39705758	     -8.93778301	     13.53398668	    -19.96896203	    -18.27512948	     59.29221268	    -10.22766957	      1.03484433	     15.06418278	     18.95805409	     -8.93778301	    -26.70402675	     10.44601593	      4.03794981	     -8.84174724	     -3.26638788	    -13.61172270	    104.25975135	     90.00000001	      0.00000000	      0.00000000	     -1.07715271	     -8.57321559	    -26.36768544	     48.76160752	     90.00000001	      0.00000000	      0.00000000
      0.63000000	      0.82936714	     -8.68589318	     -4.23299028	     -1.65059321	      0.83030129	      0.36213076	      7.42841560	      6.91530843	    -27.01948636	     21.41846663	     -2.44853075	      0.37382276	     18.29921773	     25.62089086	     -8.89851874	     14.92678056	    -20.25997426	    -19.44333112	     59.27507715	    -10.64933430	      1.03454526	     15.88153503	     18.34155829	     -8.89851874	    -26.75476476	     10.35447158	      4.06626809	     -8.70207883	     -3.30908583	    -13.71437712	    104.20277096	     90.00000001	      0.00000000	      0.00000000	     -0.89650802	     -8.52901942	    -26.18243576	     48.98857274	     90.00000001	      0.00000000	      0.00000000
